<svg fill="none" height="29" viewBox="0 0 100 29" width="100" xmlns="http://www.w3.org/2000/svg" xmlns:xlink="http://www.w3.org/1999/xlink"><clipPath id="a"><path d="m.166992.944336h99v28h-99z"/></clipPath><g clip-path="url(#a)" clip-rule="evenodd" fill-rule="evenodd"><path d="m73.136 22.2485c-3.3782 0-5.4768-1.9609-5.4768-5.1193 0-3.2816 1.9361-5.321 5.0546-5.321l.2634-.0018c.3904 0 .9283.0121 1.6643.1064v-3.96016h2.206v13.93936s-2.0949.3565-3.7115.3565zm-.0187-8.7015c-2.1351 0-3.1727 1.1536-3.1727 3.528 0 2.129 1.2515 3.4524 3.2642 3.4524.3867 0 .8294-.0242 1.4327-.0774v-6.762c-.5036-.0871-1.0132-.1343-1.5242-.141zm-30.1651 8.3832-5.9522-10.4094-.0018 10.4094h-2.0744v-13.17583h2.9028l5.954 10.31613-.0028-10.31613h2.1014v13.17583zm18.9603.2016c-1.0021 0-2.0472-.112-3.2922-.3518l-.1326-.0262v-1.8405l.1971.0429c1.0964.2334 2.0435.4359 2.9896.4359.7668 0 2.5497-.1223 2.5497-1.2507 0-.9464-1.2328-1.1834-2.2228-1.3729l-.0617-.0131c-.1699-.032-.339-.0681-.5071-.1082-1.4514-.3771-2.999-.9436-2.999-2.8934 0-1.8993 1.5018-2.9894 4.1197-2.9894 1.2571 0 2.1696.1353 2.9019.2445l.3586.0541v1.7836l-.1915-.0326c-.8293-.1531-1.8016-.3099-2.7383-.3099-1.0377 0-2.2742.1941-2.2742 1.1219 0 .7681 1.0105.9884 2.1808 1.2432 1.6344.3565 3.6639.7998 3.6639 3.0352 0 2.0514-1.6559 3.2274-4.5419 3.2274zm21.1216 0c-2.2836 0-4.3952-.4013-4.3952-3.3189 0-3.1752 3.267-3.1752 5.2189-3.1752.1952 0 1.1124.042 1.3954.0541-.0028-1.7808-.0271-2.2054-2.6048-2.2054-1.0218 0-2.1575.2034-3.1596.3826l-.1915.0346v-1.7603l.1308-.0261c1.1256-.2338 2.2723-.352 3.422-.3528 2.4993 0 4.6166.252 4.6166 3.3572v6.7741l-.1523.0149c-1.4212.1572-2.8504.2311-4.2803.2212zm.7686-4.9242c-1.8828 0-3.0484.2772-3.0484 1.6585 0 1.5988 1.4887 1.7323 2.8841 1.7323.523 0 1.4597-.0663 1.7465-.0878v-3.248c-.4044-.0158-1.4551-.055-1.5822-.055zm-31.6902 4.9242c-2.2836 0-4.3953-.4013-4.3953-3.3189 0-3.1752 3.267-3.1752 5.219-3.1752.1952 0 1.1124.042 1.3954.0541-.0028-1.7808-.0262-2.2054-2.6049-2.2054-1.0217 0-2.1574.2034-3.1596.3826l-.1914.0346v-1.7603l.1307-.0261c1.1257-.2338 2.2724-.352 3.4221-.3528 2.4993 0 4.6166.252 4.6166 3.3572v6.7741l-.1523.0149c-1.4212.1572-2.8505.2311-4.2803.2212zm.7686-4.9242c-1.8828 0-3.0484.2772-3.0484 1.6585 0 1.5988 1.4887 1.7323 2.884 1.7323.5231 0 1.4598-.0663 1.7465-.0878v-3.248c-.4044-.0158-1.4551-.055-1.5821-.055zm43.3611 9.198v-4.3214c-.8611.1214-1.3188.1214-1.6877.1214-.8723 0-1.8418-.1904-2.5936-.5096-1.6783-.6982-2.6805-2.4762-2.6805-4.7572 0-1.1396.2765-3.22 2.1295-4.3428.9274-.5563 2.0267-.7934 3.676-.7934.5922 0 1.3898.0448 2.1603.0896l1.2515.0654v13.4474zm-1.3216-12.8642c-2.2377 0-3.3734 1.1434-3.3734 3.3974 0 2.9008 1.6951 3.5093 3.1175 3.5093.3456 0 .736 0 1.598-.1092v-6.7349c-.4465-.0368-.8941-.0577-1.3421-.0626z" fill="#fff"/><path d="m25.0786.944336-7.2896 20.062964c-.1793.4946-.6314.8568-1.1731.9109v.0121h7.7052c.6043 0 1.1208-.3845 1.3141-.923l7.2896-20.062964zm-9.0903 20.679864c.4446 0 .8368-.2212 1.0769-.5581.0252-.0346.112-.1587.1737-.3267l2.6739-7.3603-1.5634-4.29983c-.0914-.21706-.2391-.4058-.4279-.54673-.1888-.14092-.4118-.22892-.646-.25489-.2342-.02598-.4711.01101-.6863.10714-.2151.09614-.4006.24792-.5374.43968-.0715.10111-.1298.21087-.1737.32667l-2.673 7.35836 1.57 4.3158c.2036.4694.6696.7989 1.2132.7989zm-7.21765-13.66493h7.78925v.00467c-.2768.01111-.5441.10429-.7678.26767s-.3937.38957-.4884.64979l-7.28956 20.0629h-7.847148l7.289578-20.0629c.19426-.5376.70981-.92213 1.31408-.92213z" fill="#0092bc"/></g></svg>